<svg width="181" height="152" viewBox="0 0 181 152" fill="none" xmlns="http://www.w3.org/2000/svg">
<path fill-rule="evenodd" clip-rule="evenodd" d="M138.892 0.32277H16.4482C11.4016 0.32277 7.31055 4.41363 7.31055 9.45996V13.1148H52.9986C55.0172 13.1148 56.6536 14.7512 56.6536 16.7697C56.6536 18.7882 55.0172 20.4246 52.9986 20.4246H7.31055V24.0794H52.9986C55.0172 24.0794 56.6536 25.7158 56.6536 27.7343C56.6536 29.7528 55.0172 31.3892 52.9986 31.3892H7.31055V35.0441H27.4133C29.4319 35.0441 31.0683 36.6804 31.0683 38.6989C31.0683 40.7175 29.4319 42.3538 27.4133 42.3538H7.31055V82.245C25.0796 60.1877 52.7538 46.0087 83.8406 46.0087C108.449 46.0087 130.919 54.8937 148.03 69.5383V54.7237C146.549 55.0009 145.022 55.1459 143.461 55.1459C129.835 55.1459 118.789 44.1006 118.789 30.4755C118.789 16.8504 129.835 5.80508 143.461 5.80508C144.801 5.80508 146.117 5.91196 147.399 6.11767C146.065 2.72457 142.759 0.32277 138.892 0.32277ZM52.9986 35.0441H40.2059C38.1873 35.0441 36.5509 36.6804 36.5509 38.6989C36.5509 40.7175 38.1873 42.3538 40.2059 42.3538H52.9986C55.0172 42.3538 56.6536 40.7175 56.6536 38.6989C56.6536 36.6804 55.0172 35.0441 52.9986 35.0441Z" fill="#0E5253"/>
<path d="M56.6536 89.8672C56.6536 95.9227 51.7444 100.832 45.6885 100.832C39.6326 100.832 34.7234 95.9227 34.7234 89.8672C34.7234 83.8116 39.6326 78.9025 45.6885 78.9025C51.7444 78.9025 56.6536 83.8116 56.6536 89.8672Z" fill="#FEF7EE"/>
<path d="M93.204 117.279C93.204 128.381 84.2037 137.381 73.1013 137.381C61.9989 137.381 52.9986 128.381 52.9986 117.279C52.9986 106.177 61.9989 97.1769 73.1013 97.1769C84.2037 97.1769 93.204 106.177 93.204 117.279Z" fill="#FEF7EE"/>
<path d="M52.9986 20.4246C55.0172 20.4246 56.6536 18.7882 56.6536 16.7697C56.6536 14.7512 55.0172 13.1148 52.9986 13.1148H7.31055V16.7697V20.4246H52.9986Z" fill="#FEF7EE"/>
<path d="M52.9986 31.3892C55.0172 31.3892 56.6536 29.7528 56.6536 27.7343C56.6536 25.7158 55.0172 24.0794 52.9986 24.0794H7.31055V31.3892H52.9986Z" fill="#FEF7EE"/>
<path d="M27.4133 42.3538C29.4319 42.3538 31.0683 40.7175 31.0683 38.6989C31.0683 36.6804 29.4319 35.0441 27.4133 35.0441H7.31055V42.3538H27.4133Z" fill="#FEF7EE"/>
<path fill-rule="evenodd" clip-rule="evenodd" d="M16.4482 152H138.892H172.724C177.389 152 181.13 148.469 180.997 143.805C180.96 142.511 180.925 141.28 180.925 140.223C180.925 112.071 168.201 86.8024 148.03 69.5383C130.919 54.8937 108.449 46.0087 83.8406 46.0087C52.7538 46.0087 25.0796 60.1877 7.31055 82.245V142.863C7.31055 147.909 11.4016 152 16.4482 152ZM73.1013 137.381C84.2037 137.381 93.204 128.381 93.204 117.279C93.204 106.177 84.2037 97.1769 73.1013 97.1769C61.9989 97.1769 52.9986 106.177 52.9986 117.279C52.9986 128.381 61.9989 137.381 73.1013 137.381ZM45.6885 100.832C51.7444 100.832 56.6536 95.9227 56.6536 89.8672C56.6536 83.8116 51.7444 78.9025 45.6885 78.9025C39.6326 78.9025 34.7234 83.8116 34.7234 89.8672C34.7234 95.9227 39.6326 100.832 45.6885 100.832Z" fill="#14967F"/>
<path d="M118.789 30.4755C118.789 44.1006 129.835 55.1459 143.461 55.1459C145.022 55.1459 146.549 55.0009 148.03 54.7237C159.473 52.5812 168.132 42.5396 168.132 30.4755C168.132 18.1907 159.153 8.00312 147.399 6.11767C146.117 5.91196 144.801 5.80508 143.461 5.80508C129.835 5.80508 118.789 16.8504 118.789 30.4755Z" fill="#14967F"/>
<path d="M180.209 20.3956C178.87 20.9246 177.439 21.1847 175.999 21.1609C174.56 21.1372 173.139 20.8301 171.818 20.2572C170.497 19.6843 169.301 18.8569 168.3 17.822C167.299 16.7872 166.511 15.5653 165.982 14.2262C165.453 12.887 165.193 11.4567 165.217 10.017C165.24 8.57728 165.547 7.15636 166.12 5.83534C166.693 4.51432 167.521 3.31907 168.556 2.31784C169.591 1.31661 170.812 0.529009 172.152 0L180.209 20.3956Z" fill="#14967F"/>
<path d="M40.2059 35.0441H52.9986C55.0172 35.0441 56.6536 36.6804 56.6536 38.6989C56.6536 40.7175 55.0172 42.3538 52.9986 42.3538H40.2059C38.1873 42.3538 36.5509 40.7175 36.5509 38.6989C36.5509 36.6804 38.1873 35.0441 40.2059 35.0441Z" fill="#FEF7EE"/>
</svg>
